# AST/ASF file generated using VICON BodyLanguage
# -----------------------------------------------
:version 1.10
:name VICON
:units
  mass 1.0
  length 0.45
  angle deg
:documentation
   .ast/.asf automatically generated from VICON data using
   VICON BodyBuilder and BodyLanguage model FoxedUp or BRILLIANT.MOD
:root
   order TX TY TZ RX RY RZ
   axis XYZ
   position 0 0 0  
   orientation 0 -0 0 
:bonedata
  begin
     id 1 
     name lhipjoint
     direction 0.500677 -0.737119 0.453848 
     length 2.34727 
     axis 0 -0 0  XYZ
  end
  begin
     id 2 
     name lfemur
     direction 0.34202 -0.939693 0  
     length 7.53653  
     axis 0 -0 20  XYZ
    dof rx ry rz
    limits (-160.0 20.0)
           (-70.0 70.0)
           (-60.0 70.0)
  end
  begin
     id 3 
     name ltibia
     direction 0.34202 -0.939693 0   
     length 6.85572   
     axis 0 -0 20   XYZ
    dof rx
    limits (-10.0 170.0)
  end
  begin
     id 4 
     name lfoot
     direction 0.155313 -0.426718 0.890949   
     length 2.18324   
     axis -90 -1.13533e-015 20   XYZ
    dof rx rz
    limits (-45.0 90.0)
           (-70.0 20.0)
  end
  begin
     id 5 
     name ltoes
     direction 1.53474e-011 -4.21647e-011 1   
     length 1.06748   
     axis -90 -1.13533e-015 20   XYZ
    dof rx
    limits (-90.0 20.0)
  end
  begin
     id 6 
     name rhipjoint
     direction -0.632471 -0.659587 0.406111   
     length 2.62319  
     axis 0 -0 0  XYZ 
  end
  begin
     id 7 
     name rfemur
     direction -0.34202 -0.939693 0   
     length 7.21735   
     axis 0 -0 -20   XYZ
    dof rx ry rz
    limits (-160.0 20.0)
           (-70.0 70.0)
           (-70.0 60.0)
  end
  begin
     id 8 
     name rtibia
     direction -0.34202 -0.939693 0   
     length 7.02558   
     axis 0 -0 -20   XYZ
    dof rx
    limits (-10.0 170.0)
 end
 begin
     id 9 
     name rfoot
     direction -0.16057 -0.441164 0.882945   
     length 2.10014  
     axis -90 1.13533e-015 -20   XYZ
    dof rx rz
    limits (-45.0 90.0)
           (-20.0 70.0)
  end
  begin
     id 10 
     name rtoes
     direction -1.53553e-011 -4.2192e-011 1   
     length 1.02554   
     axis -90 1.13533e-015 -20   XYZ
    dof rx
    limits (-90.0 20.0)
  end
  begin
     id 11 
     name lowerback
     direction 0.0401429 0.998861 -0.0258085   
     length 1.80848   
     axis 0 -0 0   XYZ
    dof rx ry rz
    limits (-20.0 45.0)
           (-30.0 30.0)
           (-30.0 30.0)
  end
  begin
     id 12 
     name upperback
     direction -0.0130978 0.999914 -0.000352645   
     length 1.8116   
     axis 0 -0 0   XYZ
    dof rx ry rz
    limits (-20.0 45.0)
           (-30.0 30.0)
           (-30.0 30.0)
  end
  begin
     id 13 
     name thorax
     direction -0.0300198 0.999453 0.0138573   
     length 1.81778   
     axis 0 -0 0   XYZ
    dof rx ry rz
    limits (-20.0 45.0)
           (-30.0 30.0)
           (-30.0 30.0)
  end
  begin
     id 14 
     name lowerneck
     direction -0.0401726 0.999191 -0.00173647   
     length 2.10594   
     axis 0 -0 0   XYZ
    dof rx ry rz
    limits (-20.0 45.0)
           (-30.0 30.0)
           (-30.0 30.0)
  end
  begin
     id 15 
     name upperneck
     direction 0.0119835 0.998501 0.0534085   
     length 2.07325   
     axis 0 -0 0   XYZ
    dof rx ry rz
    limits (-20.0 45.0)
           (-30.0 30.0)
           (-30.0 30.0)
  end
  begin
     id 16
     name head
     direction 0.00628309 0.999826 0.0175921  
     length 2.15096  
     axis 0 -0 0   XYZ
    dof rx ry rz
    limits (-20.0 45.0)
           (-30.0 30.0)
           (-30.0 30.0)
  end
  begin
     id 17 
     name lclavicle
     direction 0.895501 0.429681 -0.115981  
     length 4.18092  
     axis 0 -0 0   XYZ
    dof ry rz
    limits (-20.0 10.0)
           (0.0 20.0)
  end
  begin
     id 18 
     name lhumerus
     direction 1 -4.48961e-011 -3.38433e-028   
     length 5.77237   
     axis 180 -30 -90   XYZ
    dof rx ry rz
    limits (-60.0 90.0)
           (-90.0 90.0)
           (-90.0 90.0)
  end
  begin
     id 19
     name lradius
     direction 1 -4.4901e-011 1.11983e-026   
     length 2.91878   
     axis 180 -30 -90   XYZ
    dof rx
    limits (-10.0 170.0)
  end
  begin
     id 20
     name lwrist
     direction 1 -4.48934e-011 1.88176e-026   
     length 1.45939   
     axis -1.23311e-014 90 90   XYZ
    dof ry
    limits (-180.0 0.0)
 end
  begin
     id 21 
     name lhand
     direction 1 -4.4895e-011 3.76352e-026   
     length 1.06566   
     axis -2.40147e-014 90 90   XYZ
    dof rx rz
    limits (-90.0 90.0)
           (-45.0 45.0)
  end
  begin
     id 22 
     name lfingers
     direction 1 -4.49005e-011 7.52705e-026   
     length 0.859162   
     axis -4.80295e-014 90 90   XYZ
    dof rx
    limits (0.0 90.0)
  end
  begin
     id 23
     name lthumb
     direction 0.707107 -6.34885e-011 0.707107   
     length 1.23359   
     axis -90 45 -9.86935e-015   XYZ
    dof rx rz
    limits (-45.0 45.0)
           (-45.0 45.0)
  end
  begin
     id 24 
     name rclavicle
     direction -0.91006 0.40451 -0.0903492   
     length 4.23293  
     axis 0 -0 0   XYZ 
    dof ry rz
    limits (-10.0 20.0)
           (-20.0 0.0)
  end
  begin
     id 25 
     name rhumerus
     direction -1 -4.4897e-011 1.7415e-027  
     length 5.49854   
     axis 180 30 90   XYZ
    dof rx ry rz
    limits (-90.0 60.0)
           (-90.0 90.0)
           (-90.0 90.0)
  end
  begin
     id 26 
     name rradius
     direction -1 -4.48963e-011 1.21259e-026   
     length 3.1186   
     axis 180 30 90   XYZ
    dof rx
    limits (-10.0 170.0)
  end
  begin
     id 27 
     name rwrist
     direction -1 -4.48967e-011 1.88176e-026   
     length 1.5593   
     axis -1.23311e-014 -90 -90   XYZ
    dof ry
    limits (-180.0 0.0)
  end
  begin
     id 28
     name rhand
     direction -1 -4.4895e-011 3.76352e-026   
     length 0.71207   
     axis -2.40147e-014 -90 -90   XYZ
    dof rx rz
    limits (-90.0 90.0)
           (-45.0 45.0)
  end
  begin
     id 29
     name rfingers
     direction -1 -4.49005e-011 7.52705e-026   
     length 0.574089   
     axis -4.80295e-014 -90 -90   XYZ
    dof rx
    limits (0.0 90.0)
  end
  begin
     id 30
     name rthumb
     direction -0.707107 -6.34982e-011 0.707107   
     length 0.824281   
     axis -90 -45 9.86935e-015   XYZ
    dof rx rz
    limits (-45.0 45.0)
           (-45.0 45.0)
  end
:hierarchy
  begin
    root lhipjoint rhipjoint lowerback
    lhipjoint lfemur
    lfemur ltibia
    ltibia lfoot
    lfoot ltoes
    rhipjoint rfemur
    rfemur rtibia
    rtibia rfoot
    rfoot rtoes
    lowerback upperback
    upperback thorax
    thorax lowerneck lclavicle rclavicle
    lowerneck upperneck
    upperneck head
    lclavicle lhumerus
    lhumerus lradius
    lradius lwrist
    lwrist lhand lthumb
    lhand lfingers
    rclavicle rhumerus
    rhumerus rradius
    rradius rwrist
    rwrist rhand rthumb
    rhand rfingers
  end

#!OML:ASF C:\ViconDB\ViconDB\414\Spring2016\042216\male.ASF
:FULLY-SPECIFIED
:DEGREES
280
root 0.779139 17.225 11.2305 -83.6821 83.8596 -86.2605
lowerback -1.42377 -0.0950608 10.804
upperback 0.0750182 -0.28674 0.445091
thorax 0.828512 -0.0853775 -5.60414
lowerneck -2.59578 2.97607 -3.19947
upperneck -6.22973 4.13954 0.741477
head -1.58225 2.16343 0.73525
rclavicle -4.30182e-015 1.89839e-014
rhumerus -18.4367 5.70601 -94.4659
rradius 35.6295
rwrist 21.9896
rhand 10.4783 -19.1603
rfingers 7.12502
rthumb 35.5799 -45.579
lclavicle -4.30182e-015 1.89839e-014
lhumerus -46.7075 28.1087 71.5399
lradius 28.0311
lwrist -22.7386
lhand -4.60578 12.0959
lfingers 7.12502
lthumb 21.1721 40.9598
rfemur 15.8163 6.08159 30.2055
rtibia -6.04305e-014
rfoot -12.6128 -3.15591
rtoes -13.2516
lfemur -32.4288 -2.64594 -10.5996
ltibia 23.2512
lfoot -24.4715 15.5626
ltoes -11.7006
281
root 0.981305 17.19 11.2078 -81.6647 83.9328 -84.1795
lowerback -1.20137 -0.0612544 10.6303
upperback 0.0139768 -0.208266 0.384315
thorax 0.653416 -0.059028 -5.56818
lowerneck -2.57224 3.01009 -3.21843
upperneck -6.22982 4.18689 0.80738
head -1.58965 2.18616 0.758318
rclavicle 1.56232e-015 -1.98785e-015
rhumerus -18.653 6.09265 -94.7135
rradius 35.6633
rwrist 21.2577
rhand 9.79298 -19.2603
rfingers 7.12502
rthumb 34.93 -45.8327
lclavicle 1.56232e-015 -1.98785e-015
lhumerus -46.9354 28.268 71.2583
lradius 27.9934
lwrist -22.6672
lhand -4.68623 12.2474
lfingers 7.12502
lthumb 21.0949 41.1199
rfemur 16.6406 6.27672 30.1325
rtibia 2.22639e-014
rfoot -12.3072 -3.15205
rtoes -14.7473
lfemur -31.7451 -2.12871 -11.1894
ltibia 23.6603
lfoot -23.5534 15.4191
ltoes -12.2509
282
root 1.18984 17.1634 11.1847 -79.9476 84.1503 -82.4185
lowerback -1.09558 -0.0175668 10.3289
upperback -0.0309269 -0.132756 0.267576
thorax 0.560507 -0.0299256 -5.52012
lowerneck -2.58843 3.02662 -3.28659
upperneck -6.14193 4.21229 0.895896
head -1.56359 2.19752 0.798183
rclavicle 3.42904e-015 -1.28216e-014
rhumerus -18.8302 5.78731 -94.7352
rradius 35.6592
rwrist 21.9075
rhand 9.91183 -19.0788
rfingers 7.12502
rthumb 35.0427 -45.6249
lclavicle 3.42904e-015 -1.28216e-014
lhumerus -47.1156 28.1602 71.176
lradius 28.1214
lwrist -22.293
lhand -4.58594 12.339
lfingers 7.12502
lthumb 21.1912 41.2008
rfemur 17.4344 6.42183 29.8517
rtibia 9.54166e-015
rfoot -11.9945 -3.068
rtoes -15.5141
lfemur -31.0425 -1.50288 -12.0411
ltibia 24.3224
lfoot -22.391 15.2119
ltoes -12.3015
283
root 1.40194 17.1447 11.1527 -78.515 84.1299 -80.8522
lowerback -0.886411 0.0228874 10.314
upperback -0.0729655 -0.0514781 0.215048
thorax 0.412665 0.00124299 -5.56545
lowerneck -2.54724 3.05342 -3.23236
upperneck -6.11737 4.24228 0.841494
head -1.56058 2.21131 0.77127
rclavicle 1.90088e-015 1.14301e-014
rhumerus -19.2146 5.43647 -94.7998
rradius 35.72
rwrist 22.2689
rhand 10.2752 -18.9685
rfingers 7.12502
rthumb 35.3873 -45.4332
lclavicle 1.90088e-015 1.14301e-014
lhumerus -47.2895 28.0838 71.094
lradius 28.1611
lwrist -22.3262
lhand -4.54133 12.5394
lfingers 7.12502
lthumb 21.2341 41.3963
rfemur 18.3039 6.56893 29.8059
rtibia 4.45278e-014
rfoot -11.4907 -2.9538
rtoes -16.2458
lfemur -30.2274 -1.35 -12.4628
ltibia 24.8587
lfoot -21.0333 14.9986
ltoes -12.5034
284
root 1.61892 17.1539 11.1223 -76.6839 84.0866 -78.9954
lowerback -0.85922 0.0873692 10.3881
upperback -0.129585 0.0388781 0.0714462
thorax 0.35398 0.0405535 -5.75715
lowerneck -2.4294 3.10805 -2.99835
upperneck -6.16309 4.30484 0.769713
head -1.58859 2.23822 0.706743
rclavicle 1.83255e-015 -5.1684e-015
rhumerus -19.6173 5.27357 -95.0336
rradius 35.7096
rwrist 22.1206
rhand 10.1877 -19.2324
rfingers 7.12502
rthumb 35.3043 -45.7169
lclavicle 1.83255e-015 -5.1684e-015
lhumerus -47.4466 28.0248 70.7964
lradius 28.0889
lwrist -22.6921
lhand -4.67615 12.5264
lfingers 7.12502
lthumb 21.1045 41.3978
rfemur 18.9954 6.76939 29.7627
rtibia 6.36111e-015
rfoot -10.6644 -2.80477
rtoes -17.9665
lfemur -29.9318 -1.66614 -12.6067
ltibia 25.3883
lfoot -18.1333 14.9815
ltoes -15.5085
285
root 1.84417 17.1828 11.092 -75.5976 84.1734 -77.8922
lowerback -0.980059 0.103266 10.1229
upperback -0.14355 0.0483829 0.0875432
thorax 0.409003 0.0469042 -5.59077
lowerneck -2.34188 3.14425 -3.03614
upperneck -6.25567 4.34478 0.621944
head -1.63102 2.26213 0.664413
rclavicle -3.96327e-015 -3.35946e-014
rhumerus -20.0738 5.13365 -95.0954
rradius 35.5883
rwrist 22.0831
rhand 9.63355 -19.3091
rfingers 7.12502
rthumb 34.7787 -45.9165
lclavicle -3.96327e-015 -3.35946e-014
lhumerus -47.649 28.4264 70.6154
lradius 28.0349
lwrist -22.9717
lhand -4.97946 12.6199
lfingers 7.12502
lthumb 20.8131 41.5236
rfemur 19.6739 6.87842 29.5397
rtibia 0
rfoot -9.64708 -2.41459
rtoes -19.4497
lfemur -29.665 -3.31951 -12.3216
ltibia 25.8039
lfoot -15.627 16.4322
ltoes -13.9655
286
root 2.06605 17.1989 11.0593 -74.9975 84.4028 -77.2462
lowerback -1.069 0.1083 9.85006
upperback -0.139211 0.0459494 0.0240235
thorax 0.463234 0.0473106 -5.50393
lowerneck -2.2807 3.157 -3.08761
upperneck -6.31746 4.35389 0.475622
head -1.65887 2.27084 0.625749
rclavicle 2.82647e-016 -2.64384e-014
rhumerus -20.4197 5.30948 -95.0374
rradius 35.3308
rwrist 21.8814
rhand 9.52837 -19.3488
rfingers 7.12502
rthumb 34.6789 -45.9792
lclavicle 2.82647e-016 -2.64384e-014
lhumerus -47.8856 29.0017 70.2473
lradius 27.9872
lwrist -23.4463
lhand -5.14832 12.5252
lfingers 7.12502
lthumb 20.6509 41.4466
rfemur 20.3309 6.90759 29.155
rtibia 3.81667e-014
rfoot -8.29684 -2.00523
rtoes -20.8521
lfemur -29.2951 -4.67148 -12.3726
ltibia 26.1116
lfoot -13.2841 18.2584
ltoes -12.434
